<?xml version="1.0" encoding="UTF-8"?>
<svg id="_레이어_2" data-name="레이어 2" xmlns="http://www.w3.org/2000/svg" viewBox="0 0 437.73 259.63">
  <defs>
    <style>
      .cls-1 {
        fill: #fff;
        stroke-width: 0px;
      }
    </style>
  </defs>
  <g id="_레이어_1-2" data-name="레이어 1">
    <g>
      <path class="cls-1" d="m70.49,244.27H8.35V40.95L70.49,8.45m.43-8.45L0,37.09v222.54h70.93V0h0Z"/>
      <polygon class="cls-1" points="70.93 259.63 141.85 259.63 141.85 37.09 70.93 0 70.93 259.63"/>
      <g>
        <path class="cls-1" d="m183.49,80.36v-28.86h-11.3v-4.1h27.26v4.1h-11.3v28.86h-4.66Z"/>
        <path class="cls-1" d="m209.29,76.27h19.21v4.1h-23.91v-32.95h23.25v4.1h-18.55v24.76Zm-.42-14.64h16.95v4h-16.95v-4Z"/>
        <path class="cls-1" d="m231.13,80.36l14.92-32.95h4.66l14.97,32.95h-4.94l-13.32-30.32h1.88l-13.32,30.32h-4.85Zm6.35-8.24l1.27-3.77h18.55l1.36,3.77h-21.18Z"/>
        <path class="cls-1" d="m270.57,80.36v-32.95h3.86l14.78,24.9h-2.07l14.59-24.9h3.86l.05,32.95h-4.52l-.05-25.84h1.08l-12.99,21.84h-2.17l-13.09-21.84h1.18v25.84h-4.52Z"/>
        <path class="cls-1" d="m176.95,136.85v-32.95h3.86l14.78,24.9h-2.07l14.59-24.9h3.86l.05,32.95h-4.52l-.05-25.84h1.08l-12.99,21.84h-2.17l-13.09-21.84h1.18v25.84h-4.52Z"/>
        <path class="cls-1" d="m236.78,137.23c-2.51,0-4.84-.42-6.99-1.27-2.15-.85-4.01-2.03-5.58-3.55-1.57-1.52-2.79-3.3-3.67-5.34-.88-2.04-1.32-4.27-1.32-6.68s.44-4.64,1.32-6.68c.88-2.04,2.1-3.82,3.67-5.34,1.57-1.52,3.42-2.71,5.56-3.55,2.13-.85,4.47-1.27,7.01-1.27s4.82.42,6.94,1.25c2.12.83,3.97,2.01,5.56,3.53,1.58,1.52,2.81,3.3,3.67,5.34.86,2.04,1.29,4.28,1.29,6.73s-.43,4.69-1.29,6.73c-.86,2.04-2.09,3.82-3.67,5.34-1.59,1.52-3.44,2.7-5.56,3.53-2.12.83-4.43,1.25-6.94,1.25Zm0-4.19c1.82,0,3.51-.31,5.06-.94,1.55-.63,2.9-1.51,4.05-2.66,1.15-1.15,2.04-2.49,2.68-4.02.64-1.54.96-3.22.96-5.04s-.32-3.5-.96-5.04c-.64-1.54-1.54-2.88-2.68-4.02-1.15-1.15-2.49-2.03-4.05-2.66-1.55-.63-3.24-.94-5.06-.94s-3.55.31-5.11.94c-1.55.63-2.91,1.51-4.07,2.66-1.16,1.15-2.06,2.49-2.71,4.02-.64,1.54-.97,3.22-.97,5.04s.32,3.5.97,5.04c.64,1.54,1.55,2.88,2.71,4.02,1.16,1.15,2.52,2.03,4.07,2.66,1.55.63,3.26.94,5.11.94Z"/>
        <path class="cls-1" d="m261.44,136.85v-32.95h3.86l21.79,27.07h-2.02v-27.07h4.71v32.95h-3.86l-21.79-27.07h2.02v27.07h-4.71Z"/>
        <path class="cls-1" d="m314.54,137.23c-2.51,0-4.84-.42-6.99-1.27-2.15-.85-4.01-2.03-5.58-3.55-1.57-1.52-2.79-3.3-3.67-5.34-.88-2.04-1.32-4.27-1.32-6.68s.44-4.64,1.32-6.68c.88-2.04,2.1-3.82,3.67-5.34,1.57-1.52,3.42-2.71,5.56-3.55,2.13-.85,4.47-1.27,7.01-1.27s4.82.42,6.94,1.25c2.12.83,3.97,2.01,5.56,3.53,1.58,1.52,2.81,3.3,3.67,5.34.86,2.04,1.29,4.28,1.29,6.73s-.43,4.69-1.29,6.73c-.86,2.04-2.09,3.82-3.67,5.34-1.59,1.52-3.44,2.7-5.56,3.53-2.12.83-4.43,1.25-6.94,1.25Zm0-4.19c1.82,0,3.51-.31,5.06-.94,1.55-.63,2.9-1.51,4.05-2.66,1.15-1.15,2.04-2.49,2.68-4.02.64-1.54.96-3.22.96-5.04s-.32-3.5-.96-5.04c-.64-1.54-1.54-2.88-2.68-4.02-1.15-1.15-2.49-2.03-4.05-2.66-1.55-.63-3.24-.94-5.06-.94s-3.55.31-5.11.94c-1.55.63-2.91,1.51-4.07,2.66-1.16,1.15-2.06,2.49-2.71,4.02-.64,1.54-.97,3.22-.97,5.04s.32,3.5.97,5.04c.64,1.54,1.55,2.88,2.71,4.02,1.16,1.15,2.52,2.03,4.07,2.66,1.55.63,3.26.94,5.11.94Z"/>
        <path class="cls-1" d="m339.21,136.85v-32.95h4.71v28.86h17.84v4.1h-22.55Z"/>
        <path class="cls-1" d="m367.17,136.85v-32.95h4.71v32.95h-4.71Z"/>
        <path class="cls-1" d="m388.3,136.85v-28.86h-11.3v-4.1h27.26v4.1h-11.3v28.86h-4.66Z"/>
        <path class="cls-1" d="m414.1,136.85h-4.71v-32.95h4.71v32.95Zm19.35-14.69h-19.82v-4.09h19.82v4.09Zm-.42-18.26h4.71v32.95h-4.71v-32.95Z"/>
      </g>
    </g>
  </g>
</svg>