<?xml version="1.0" encoding="UTF-8"?>
<svg id="_레이어_2" data-name="레이어 2" xmlns="http://www.w3.org/2000/svg" xmlns:xlink="http://www.w3.org/1999/xlink" viewBox="0 0 418.12 248">
  <defs>
    <style>
      .cls-1 {
        fill: url(#_무제_그라디언트_1389);
      }

      .cls-1, .cls-2 {
        stroke-width: 0px;
      }

      .cls-2 {
        fill: #00002f;
      }
    </style>
    <linearGradient id="_무제_그라디언트_1389" data-name="무제 그라디언트 1389" x1="96.04" y1="231.67" x2="-12.95" y2="42.9" gradientUnits="userSpaceOnUse">
      <stop offset="0" stop-color="#00002f"/>
      <stop offset=".5" stop-color="#ff6b47"/>
      <stop offset=".75" stop-color="#21ff95"/>
      <stop offset="1" stop-color="#00e7ff"/>
    </linearGradient>
  </defs>
  <g id="_레이어_1-2" data-name="레이어 1">
    <polygon class="cls-1" points="67.75 248 0 248 0 35.43 67.75 0 67.75 248"/>
    <polygon class="cls-2" points="67.75 248 135.49 248 135.49 35.43 67.75 0 67.75 248"/>
    <g>
      <path class="cls-2" d="m175.27,76.76v-27.56h-10.79v-3.91h26.03v3.91h-10.79v27.56h-4.45Z"/>
      <path class="cls-2" d="m199.91,72.85h18.35v3.91h-22.84v-31.47h22.21v3.91h-17.72v23.65Zm-.4-13.98h16.19v3.82h-16.19v-3.82Z"/>
      <path class="cls-2" d="m220.77,76.76l14.25-31.47h4.45l14.3,31.47h-4.72l-12.72-28.96h1.8l-12.72,28.96h-4.63Zm6.07-7.87l1.21-3.6h17.72l1.3,3.6h-20.23Z"/>
      <path class="cls-2" d="m258.45,76.76v-31.47h3.69l14.12,23.79h-1.98l13.94-23.79h3.69l.04,31.47h-4.32l-.04-24.69h1.03l-12.41,20.86h-2.07l-12.5-20.86h1.12v24.69h-4.32Z"/>
      <path class="cls-2" d="m169.02,130.72v-31.47h3.69l14.12,23.79h-1.98l13.94-23.79h3.69l.04,31.47h-4.32l-.04-24.69h1.03l-12.41,20.86h-2.07l-12.5-20.86h1.12v24.69h-4.32Z"/>
      <path class="cls-2" d="m226.17,131.08c-2.4,0-4.62-.4-6.68-1.21-2.05-.81-3.83-1.94-5.33-3.39-1.5-1.45-2.67-3.15-3.51-5.1-.84-1.95-1.26-4.08-1.26-6.39s.42-4.44,1.26-6.38c.84-1.95,2.01-3.65,3.51-5.1,1.5-1.45,3.27-2.59,5.31-3.39,2.04-.81,4.27-1.21,6.7-1.21s4.61.4,6.63,1.19c2.02.79,3.79,1.92,5.31,3.37,1.51,1.45,2.68,3.16,3.51,5.1.82,1.95,1.24,4.09,1.24,6.43s-.41,4.48-1.24,6.43c-.83,1.95-1.99,3.65-3.51,5.1-1.51,1.45-3.28,2.58-5.31,3.37-2.02.79-4.23,1.19-6.63,1.19Zm0-4c1.74,0,3.35-.3,4.83-.9,1.48-.6,2.77-1.45,3.87-2.54s1.95-2.38,2.56-3.84c.61-1.47.92-3.07.92-4.81s-.31-3.34-.92-4.81c-.61-1.47-1.47-2.75-2.56-3.84-1.09-1.09-2.38-1.94-3.87-2.54-1.48-.6-3.1-.9-4.83-.9s-3.39.3-4.88.9c-1.48.6-2.78,1.45-3.89,2.54-1.11,1.09-1.97,2.38-2.59,3.84-.61,1.47-.92,3.07-.92,4.81s.31,3.34.92,4.81c.61,1.47,1.48,2.75,2.59,3.84,1.11,1.09,2.41,1.94,3.89,2.54,1.48.6,3.11.9,4.88.9Z"/>
      <path class="cls-2" d="m249.73,130.72v-31.47h3.69l20.82,25.85h-1.93v-25.85h4.5v31.47h-3.69l-20.82-25.85h1.93v25.85h-4.5Z"/>
      <path class="cls-2" d="m300.45,131.08c-2.4,0-4.62-.4-6.68-1.21-2.05-.81-3.83-1.94-5.33-3.39-1.5-1.45-2.67-3.15-3.51-5.1-.84-1.95-1.26-4.08-1.26-6.39s.42-4.44,1.26-6.38c.84-1.95,2.01-3.65,3.51-5.1,1.5-1.45,3.27-2.59,5.31-3.39,2.04-.81,4.27-1.21,6.7-1.21s4.61.4,6.63,1.19c2.02.79,3.79,1.92,5.31,3.37,1.51,1.45,2.68,3.16,3.51,5.1.82,1.95,1.24,4.09,1.24,6.43s-.41,4.48-1.24,6.43c-.83,1.95-1.99,3.65-3.51,5.1-1.51,1.45-3.28,2.58-5.31,3.37-2.02.79-4.23,1.19-6.63,1.19Zm0-4c1.74,0,3.35-.3,4.83-.9,1.48-.6,2.77-1.45,3.87-2.54s1.95-2.38,2.56-3.84c.61-1.47.92-3.07.92-4.81s-.31-3.34-.92-4.81c-.61-1.47-1.47-2.75-2.56-3.84-1.09-1.09-2.38-1.94-3.87-2.54-1.48-.6-3.1-.9-4.83-.9s-3.39.3-4.88.9c-1.48.6-2.78,1.45-3.89,2.54-1.11,1.09-1.97,2.38-2.59,3.84-.61,1.47-.92,3.07-.92,4.81s.31,3.34.92,4.81c.61,1.47,1.48,2.75,2.59,3.84,1.11,1.09,2.41,1.94,3.89,2.54,1.48.6,3.11.9,4.88.9Z"/>
      <path class="cls-2" d="m324.01,130.72v-31.47h4.5v27.56h17.04v3.91h-21.54Z"/>
      <path class="cls-2" d="m350.72,130.72v-31.47h4.5v31.47h-4.5Z"/>
      <path class="cls-2" d="m370.91,130.72v-27.56h-10.79v-3.91h26.03v3.91h-10.79v27.56h-4.45Z"/>
      <path class="cls-2" d="m395.55,130.72h-4.5v-31.47h4.5v31.47Zm18.48-14.03h-18.93v-3.91h18.93v3.91Zm-.4-17.45h4.5v31.47h-4.5v-31.47Z"/>
    </g>
  </g>
</svg>